{"title":"GI Joe The Rise Of Cobra 2009 DVDrip English Klam","uid":6197487,"size":1894204207,"categoryP":"video","categoryS":"movies","magnet":"?xt=urn:btih:df6c84e62b291f964b6c6c5dc5450193c5604852&amp;dn=GI+Joe+The+Rise+Of+Cobra+2009+DVDrip+English+Klam&amp;tr=udp%3A%2F%2Ftracker.openbittorrent.com%3A80&amp;tr=udp%3A%2F%2Fopen.demonii.com%3A1337&amp;tr=udp%3A%2F%2Ftracker.coppersurfer.tk%3A6969&amp;tr=udp%3A%2F%2Fexodus.desync.com%3A6969","seeders":6,"leechers":0,"uploader":"Klambake","files":-1,"time":1298490881,"description":"With: Channing Tatum, Sienna Miller and Marlon Wayans\n\nTwo soldiers stationed in Kazahkstan (Captain Duke Hauser and his partner &quot;Ripcord&quot;) are ordered to transport special warheads created by MARS, an arms' manufacturer controlled by James McCullen. When they are attacked by thieves (led by Anastasia DeCobray, with whom Duke has history), they are saved by a top secret, international special forces unit known as &quot;G.I. Joe&quot;. The leader of G.I. Joe, General Abernathy (or Hawk) is on the trail of the thieves: an evil organization called &quot;Cobra&quot;. While Duke and Ripcord train to join the Joes, McCullen (&quot;Destro&quot;) is secretly working for Cobra and plotting to recapture his metal-eating &quot;Nanomite&quot; warheads. Duke and Ripcord (with help from Heavy Duty, Snake Eyes, and the rest of the Joes) must prove that they are Real American Heroes -- by stopping the launch of these warheads before Cobra uses them to take over the world. \n\nGeneral:\n\nComplete name                    : GI Joe The Rise of Cobra\\GI Joe The Rise of Cobra.avi\nFormat                           : AVI\nFormat/Info                      : Audio Video Interleave\nFile size                        : 1.76 GiB\nDuration                         : 1h 53mn\nOverall bit rate                 : 2 230 Kbps\n\nVideo:\n\nFormat                           : MPEG-4 Visual\nFormat profile                   : Simple@L3\nFormat settings, BVOP            : No\nFormat settings, QPel            : No\nFormat settings, GMC             : No warppoints\nFormat settings, Matrix          : Default (H.263)\nCodec ID                         : XVID\nCodec ID/Hint                    : XviD\nDuration                         : 1h 53mn\nBit rate                         : 1 771 Kbps\nWidth                            : 704 pixels\nHeight                           : 396 pixels\nDisplay aspect ratio             : 16:9\nFrame rate                       : 25.000 fps\nColor space                      : YUV\nChroma subsampling               : 4:2:0\nBit depth                        : 8 bits\nScan type                        : Progressive\nBits/(Pixel*Frame)               : 0.254\nStream size                      : 1.40 GiB (79%)\nWriting library                  : XviD 1.1.2 (UTC 2006-11-01)\n\nAudio:\n\nFormat                           : AC-3\nFormat/Info                      : Audio Coding 3\nMode extension                   : CM (complete main)\nCodec ID                         : 2000\nDuration                         : 1h 53mn\nBit rate mode                    : Constant\nBit rate                         : 448 Kbps\nChannel(s)                       : 6 channels\nChannel positions                : Front: L C R, Side: L R, LFE\nSampling rate                    : 48.0 KHz\nBit depth                        : 16 bits\nStream size                      : 363 MiB (20%)\nAlignment                        : Aligned on interleaves\nInterleave, duration             : 32 ms (0.80 video frame)\n","torrent":{"xt":"urn:btih:df6c84e62b291f964b6c6c5dc5450193c5604852","amp;dn":"GI+Joe+The+Rise+Of+Cobra+2009+DVDrip+English+Klam","amp;tr":["udp%3A%2F%2Ftracker.openbittorrent.com%3A80","udp%3A%2F%2Fopen.demonii.com%3A1337","udp%3A%2F%2Ftracker.coppersurfer.tk%3A6969","udp%3A%2F%2Fexodus.desync.com%3A6969"],"infoHash":"df6c84e62b291f964b6c6c5dc5450193c5604852","infoHashBuffer":{"type":"Buffer","data":[223,108,132,230,43,41,31,150,75,108,108,93,197,69,1,147,197,96,72,82]},"announce":[],"urlList":[]}}